<svg xmlns="http://www.w3.org/2000/svg" viewBox="0 0 32 32" fill="none">
  <defs>
    <linearGradient id="walletGradient" x1="0%" y1="0%" x2="100%" y2="100%">
      <stop offset="0%" style="stop-color:#10b981;stop-opacity:1" />
      <stop offset="100%" style="stop-color:#059669;stop-opacity:1" />
    </linearGradient>
  </defs>
  <rect width="32" height="32" rx="8" fill="url(#walletGradient)"/>
  <path d="M8 12C8 10.8954 8.89543 10 10 10H22C23.1046 10 24 10.8954 24 12V20C24 21.1046 23.1046 22 22 22H10C8.89543 22 8 21.1046 8 20V12Z" fill="white" fill-opacity="0.9"/>
  <path d="M20 16C20 17.1046 20.8954 18 22 18H24V14H22C20.8954 14 20 14.8954 20 16Z" fill="url(#walletGradient)"/>
  <circle cx="22" cy="16" r="1" fill="white"/>
  <path d="M10 10V8C10 6.89543 10.8954 6 12 6H20C21.1046 6 22 6.89543 22 8V10" stroke="white" stroke-opacity="0.9" stroke-width="2" stroke-linecap="round"/>
</svg>
